<?xml version="1.0" encoding="iso-8859-1"?>
<!-- Generator: Adobe Illustrator 19.0.0, SVG Export Plug-In . SVG Version: 6.00 Build 0)  -->
<svg version="1.1" id="Capa_1" xmlns="http://www.w3.org/2000/svg" xmlns:xlink="http://www.w3.org/1999/xlink" x="0px" y="0px"
	 viewBox="0 0 512.025 512.025" style="enable-background:new 0 0 512.025 512.025;" xml:space="preserve">
<g transform="translate(-1)">
	<path style="fill:#D75E72;" d="M314.665,24.342C282.066-8.038,229.416-7.95,196.926,24.54s-32.579,85.139-0.198,117.739
		c9.589,9.694,21.456,16.826,34.516,20.745c6.268,6.709,13.859,20.303,5.826,44.491c-1.501,4.59-3.708,12.535-6.444,23.128
		c9.565-3.732,20.289-3.054,29.308,1.854c8.298-1.236,16.508-2.648,24.541-4.061c7.327-39.901,17.479-73.357,33.368-89.247
		l-0.441,0.177C347.353,106.446,346.148,55.8,314.665,24.342z M286.77,114.384c-17.155,17.131-44.948,17.118-62.087-0.03
		c-17.139-17.147-17.139-44.94,0-62.087c17.139-17.147,44.932-17.16,62.087-0.03c8.251,8.236,12.888,19.415,12.888,31.073
		S295.021,106.148,286.77,114.384z"/>
	<path style="fill:#C03A2B;" d="M276.265,283.697c-7.062,56.232-11.741,115.288-20.568,153.6
		c-18.626,80.684-86.952,74.505-86.952,74.505s25.777-123.145,46.257-213.892c4.414-0.971,8.739-1.942,12.977-3.001h0.088
		c13.409,6.636,29.561,3.932,40.077-6.709c1.041-1.024,2.014-2.115,2.913-3.266C272.822,284.491,274.499,284.05,276.265,283.697z"/>
	<path id="SVGCleanerId_0" style="fill:#D75E72;" d="M488.568,198.157c-31.495-31.396-82.071-32.599-115.023-2.737l0.177-0.353
		c-15.89,15.89-49.346,26.041-89.247,33.368c-8.033,1.412-16.243,2.824-24.541,4.061c3.031,1.6,5.8,3.654,8.21,6.091
		c12.476,12.523,13.722,32.358,2.913,46.345c1.766-0.441,3.443-0.883,5.208-1.236c13.506-3.354,23.746-6.091,29.131-7.856
		c24.188-8.033,37.782-0.441,44.491,5.826c3.918,13.06,11.051,24.928,20.745,34.516c32.592,32.567,85.414,32.547,117.981-0.044
		S521.16,230.725,488.568,198.157z M460.585,288.199c-17.137,17.137-44.921,17.137-62.058,0c-17.137-17.137-17.137-44.921,0-62.058
		c17.137-17.137,44.921-17.137,62.058,0C477.711,243.282,477.711,271.057,460.585,288.199z"/>
	<g>
		<path style="fill:#D75E72;" d="M227.978,294.908c-4.237,1.059-8.563,2.03-12.977,3.001
			C124.254,318.301,1.109,344.077,1.109,344.077s-6.179-68.237,74.505-86.863c36.017-8.298,90.13-12.888,143.448-19.244
			l-0.618,0.618c-13.683,13.707-13.683,35.904,0,49.611C221.204,290.977,224.431,293.248,227.978,294.908z"/>
		<path style="fill:#D75E72;" d="M271.057,284.933c-0.899,1.151-1.872,2.242-2.913,3.266c-10.516,10.641-26.669,13.345-40.077,6.709
			h-0.088c-3.547-1.66-6.774-3.931-9.534-6.709c-13.683-13.707-13.683-35.904,0-49.611l0.618-0.618h0.177
			c3.273-3.172,7.144-5.663,11.388-7.327c9.565-3.732,20.289-3.054,29.308,1.854c3.031,1.6,5.8,3.654,8.21,6.091
			C280.619,251.111,281.866,270.946,271.057,284.933z"/>
	</g>
	<path style="fill:#C03A2B;" d="M314.665,24.342C282.066-8.038,229.416-7.95,196.926,24.54s-32.579,85.139-0.198,117.739
		c9.589,9.694,21.456,16.826,34.516,20.745c6.268,6.709,13.859,20.303,5.826,44.491c-1.501,4.59-3.708,12.535-6.444,23.128
		c9.565-3.732,20.289-3.054,29.308,1.854c8.298-1.236,16.508-2.648,24.541-4.061c7.327-39.901,17.479-73.357,33.368-89.247
		l-0.441,0.177C347.353,106.446,346.148,55.8,314.665,24.342z M286.77,114.384c-17.155,17.131-44.948,17.118-62.087-0.03
		c-17.139-17.147-17.139-44.94,0-62.087c17.139-17.147,44.932-17.16,62.087-0.03c8.251,8.236,12.888,19.415,12.888,31.073
		S295.021,106.148,286.77,114.384z"/>
	<g>
		<path id="SVGCleanerId_0_1_" style="fill:#D75E72;" d="M488.568,198.157c-31.495-31.396-82.071-32.599-115.023-2.737l0.177-0.353
			c-15.89,15.89-49.346,26.041-89.247,33.368c-8.033,1.412-16.243,2.824-24.541,4.061c3.031,1.6,5.8,3.654,8.21,6.091
			c12.476,12.523,13.722,32.358,2.913,46.345c1.766-0.441,3.443-0.883,5.208-1.236c13.506-3.354,23.746-6.091,29.131-7.856
			c24.188-8.033,37.782-0.441,44.491,5.826c3.918,13.06,11.051,24.928,20.745,34.516c32.592,32.567,85.414,32.547,117.981-0.044
			S521.16,230.725,488.568,198.157z M460.585,288.199c-17.137,17.137-44.921,17.137-62.058,0c-17.137-17.137-17.137-44.921,0-62.058
			c17.137-17.137,44.921-17.137,62.058,0C477.711,243.282,477.711,271.057,460.585,288.199z"/>
	</g>
	<path style="fill:#802F34;" d="M271.057,284.933c-0.899,1.151-1.872,2.242-2.913,3.266c-10.516,10.641-26.669,13.345-40.077,6.709
		h-0.088c-3.547-1.66-6.774-3.931-9.534-6.709c-13.683-13.707-13.683-35.904,0-49.611l0.618-0.618h0.177
		c3.273-3.172,7.144-5.663,11.388-7.327c9.565-3.732,20.289-3.054,29.308,1.854c3.031,1.6,5.8,3.654,8.21,6.091
		C280.619,251.111,281.866,270.946,271.057,284.933z"/>
</g>
<g>
</g>
<g>
</g>
<g>
</g>
<g>
</g>
<g>
</g>
<g>
</g>
<g>
</g>
<g>
</g>
<g>
</g>
<g>
</g>
<g>
</g>
<g>
</g>
<g>
</g>
<g>
</g>
<g>
</g>
</svg>
